<svg width="800.000000" height="800.000000" viewBox="0 0 800 800" fill="none" xmlns="http://www.w3.org/2000/svg" xmlns:xlink="http://www.w3.org/1999/xlink">
	<desc>
			Created with Pixso.
	</desc>
	<defs>
		<clipPath id="clip1_3">
			<rect id="github-142-svgrepo-com" width="800.000000" height="800.000000" fill="white" fill-opacity="0"/>
		</clipPath>
	</defs>
	<g clip-path="url(#clip1_3)">
		<path id="github-[#142]" d="M400 0C620.92 0 800 183.594 800 410.117C800 591.289 685.52 744.961 526.68 799.238C506.4 803.281 499.2 790.488 499.2 779.551C499.2 766.035 499.68 721.875 499.68 666.992C499.68 628.77 486.88 603.809 472.52 591.074C561.6 580.918 655.2 546.23 655.2 388.711C655.2 343.926 639.68 307.363 614 278.633C618.16 268.281 631.88 226.562 610.08 170.078C610.08 170.078 576.56 159.082 500.2 212.129C468.24 203.047 434 198.477 400 198.32C366 198.477 331.8 203.047 299.88 212.129C223.44 159.082 189.84 170.078 189.84 170.078C168.12 226.562 181.84 268.281 185.96 278.633C160.4 307.363 144.76 343.926 144.76 388.711C144.76 545.84 238.16 581.035 327 591.406C315.56 601.641 305.2 619.727 301.6 646.23C278.8 656.719 220.88 674.844 185.2 612.168C185.2 612.168 164.04 572.754 123.88 569.883C123.88 569.883 84.8801 569.355 121.16 594.805C121.16 594.805 147.36 607.402 165.56 654.805C165.56 654.805 189.04 728.008 300.32 703.203C300.52 737.48 300.88 769.805 300.88 779.551C300.88 790.391 293.52 803.086 273.56 799.277C114.6 745.078 0 591.328 0 410.117C0 183.594 179.12 0 400 0Z" fill="#54586C" fill-opacity="1.000000" fill-rule="evenodd"/>
	</g>
</svg>
