<svg width="799.999939" height="800.000000" viewBox="0 0 800 800" fill="none" xmlns="http://www.w3.org/2000/svg" xmlns:xlink="http://www.w3.org/1999/xlink">
	<desc>
			Created with Pixso.
	</desc>
	<defs/>
	<path id="path" d="M735.983 0.0717468L68.4984 0.0717468C59.8951 -0.331207 51.2963 0.966156 43.195 3.89041C35.0937 6.81464 27.6489 11.3077 21.286 17.1122C14.9237 22.9172 9.76828 29.92 6.11588 37.7193C2.46346 45.5191 0.384995 53.9623 0 62.566L0 731.506C0.503983 749.51 7.88281 766.643 20.621 779.377C33.3592 792.116 50.4908 799.495 68.4984 800L735.983 800C753.488 799.22 769.992 791.611 781.957 778.807C793.922 766.003 800.392 749.025 799.982 731.506L799.982 62.566C800.127 54.1918 798.557 45.8771 795.372 38.1308C792.187 30.385 787.452 23.3711 781.457 17.5191C775.467 11.6677 768.342 7.10211 760.523 4.1019C752.703 1.10165 744.353 -0.269714 735.983 0.0717468ZM249.994 667.012L133.497 667.012L133.497 310.545L249.994 310.545L249.994 667.012ZM194.496 256.548C186.366 256.832 178.266 255.431 170.704 252.434C163.142 249.437 156.281 244.909 150.553 239.134C144.825 233.359 140.352 226.463 137.417 218.877C134.482 211.291 133.147 203.18 133.497 195.054C133.137 186.84 134.499 178.641 137.494 170.985C140.49 163.327 145.053 156.381 150.89 150.591C156.728 144.801 163.711 140.294 171.393 137.362C179.074 134.428 187.284 133.134 195.495 133.56C203.625 133.277 211.725 134.677 219.287 137.674C226.849 140.67 233.71 145.198 239.438 150.973C245.166 156.748 249.639 163.645 252.574 171.231C255.509 178.817 256.844 186.928 256.494 195.054C256.854 203.268 255.492 211.466 252.497 219.123C249.501 226.781 244.938 233.727 239.101 239.517C233.263 245.307 226.28 249.813 218.598 252.746C210.917 255.679 202.707 256.974 194.496 256.548ZM666.985 667.012L549.987 667.012L549.987 472.03C549.987 425.534 533.488 393.537 491.989 393.537C479.099 393.647 466.554 397.742 456.084 405.261C445.61 412.78 437.72 423.354 433.49 435.533C430.24 444.663 428.88 454.357 429.49 464.031L429.49 667.012L314.493 667.012L314.493 310.545L429.49 310.545L429.49 360.54C439.715 341.757 454.93 326.168 473.459 315.489C491.989 304.815 513.108 299.47 534.488 300.044C609.986 300.044 666.985 350.041 666.985 456.531L666.985 667.012Z" fill="#54586C" fill-opacity="1.000000" fill-rule="nonzero"/>
</svg>
