<svg version="1.2" xmlns="http://www.w3.org/2000/svg" viewBox="0 0 1518 1177" width="1518" height="1177">
	<title>nextgen-logo-color-svg</title>
	<defs>
		<linearGradient id="g1" x1="0" y1="588.5" x2="1517.2" y2="588.5" gradientUnits="userSpaceOnUse">
			<stop offset="0" stop-color="#dc6b2f"/>
			<stop offset=".4" stop-color="#c55434"/>
			<stop offset="1" stop-color="#a4343a"/>
		</linearGradient>
		<linearGradient id="g2" x1="30.7" y1="525.4" x2="1517.2" y2="525.4" gradientUnits="userSpaceOnUse">
			<stop offset="0" stop-color="#dc6b2f"/>
			<stop offset=".4" stop-color="#c55434"/>
			<stop offset="1" stop-color="#a4343a"/>
		</linearGradient>
	</defs>
	<style>
		.s0 { fill: url(#g1) } 
		.s1 { fill: url(#g2) } 
		.s2 { fill: #ffffff } 
	</style>
	<g id="Layer">
		<g id="Layer">
			<path id="Layer" fill-rule="evenodd" class="s0" d="m1517.1 0.9v762.7l-51.2 51.9c-10.2 4.1-20.9 5.9-37 5.9-44.1 0-57.7-17-57.7-66.6v-289.3h115.4v-53.1h-112.7c0-59.5 9-129.8 9-129.8l-73.9 16.2c0 0-7.2 70.2-7.2 113.5h-48.8l-34.1 53.2h82.9v308.2c0 45 11.8 73.9 43.3 89.2 17.2 8.1 35.2 12.6 58.7 12.6 1.1 0 2.1-0.1 3.2-0.1l-296.8 300.8h-1110.2v-764.3l407-411zm-1085.8 519.6c0-18-3.7-36.1-10.8-52.2-18.1-39.7-61.4-65.8-110-65.8-47.8 0-94.6 22.5-141.4 69.3 0-36.9-16.2-70.3-16.2-70.3l-70.3 15.4c0 0 18.9 34.2 18.9 98.1v346h68.5v-334.2c32.5-34.2 88.4-63.1 124.4-63.1 20.7 0 39.7 7.2 49.6 18.9 12.6 15.3 16.2 27 16.2 74.8v303.6h71.2c-0.1 0-0.1-340.5-0.1-340.5zm402.9 127.9v-9.9c-1.7-107.3-12.6-149.6-51.3-189.2-30.7-31.5-73.1-48.6-121.7-48.6-54.1 0-98.2 19.8-134.3 62.1-37.9 45.1-54 93.8-54 169.4 0 148.7 74.7 238.8 199.1 238.8 57.8 0 111.8-19.9 151.4-55.9l-27-45c-31.6 28.8-66.6 42.3-109.9 42.3-45.1 0-86.6-16.2-111.7-54.9-15.4-23.5-20.8-55.9-20.8-98.2v-10.9zm242.3-36l133.4-200h-82.1l-86.5 149.5-89.2-149.5h-86.5l138.8 200-167.6 248.6h82.9l121.7-191 121.7 191h85.6z"/>
			<path id="Layer" class="s1" d="m738.8 495.2c13.5 21.7 19.9 51.4 20.8 100h-205.5c3.6-92.7 39.7-139.6 103.6-139.6 34.2 0 65.8 15.3 81.1 39.6z"/>
		</g>
		<path id="Layer" class="s2" d="m420.8 468.2c7.2 16.2 10.8 34.3 10.8 52.3v340.5h-71.2v-303.6c0-47.8-3.6-59.5-16.2-74.8-9.9-11.7-28.8-18.9-49.6-18.9-36 0-91.9 28.9-124.4 63.1v334.2h-68.5v-346c0-64-18.9-98.2-18.9-98.2l70.3-15.4c0 0 16.2 33.5 16.2 70.4 46.8-46.8 93.7-69.4 141.4-69.4 48.7 0 92 26.2 110.1 65.8z"/>
		<path id="Layer" fill-rule="evenodd" class="s2" d="m783.1 449.4c38.7 39.6 49.5 81.9 51.3 189.1v9.9h-280.2v10.9c0 42.3 5.4 74.7 20.7 98.2 25.2 38.7 66.7 54.9 111.7 54.9 43.3 0 78.4-13.5 110-42.3l27 45c-39.7 36-93.8 55.9-151.4 55.9-124.4 0-199.2-90.1-199.2-238.8 0-75.7 16.2-124.3 54.1-169.4 36-42.3 80.2-62.1 134.2-62.1 48.7 0 91 17 121.8 48.7zm-23.5 145.8c-0.9-48.7-7.2-78.4-20.8-100-15.3-24.3-46.9-39.6-81.1-39.6-64 0-100 46.9-103.6 139.6z"/>
		<path id="Layer" class="s2" d="m1076.7 612.4l172 248.6h-85.6l-121.6-191-121.7 191h-82.9l167.6-248.6-138.7-200h86.5l89.2 149.5 86.5-149.5h82z"/>
		<path id="Layer" class="s2" d="m1428.9 821.3c16.2 0 26.9-1.9 37.1-5.9l-59 59.8c-1.1 0-2.1 0.1-3.2 0.1-23.5 0-41.5-4.5-58.7-12.6-31.5-15.3-43.3-44.2-43.3-89.2v-308.1h-82.9l34.1-53.2h48.8c0-43.2 7.2-113.5 7.2-113.5l73.9-16.2c0 0-9 70.3-9 129.8h112.7v53.2h-115.4v289.2c0 49.6 13.6 66.7 57.7 66.6z"/>
		<g id="Layer">
		</g>
	</g>
</svg>