<svg width="821.870483" height="698.508911" viewBox="0 0 821.87 698.509" fill="none" xmlns="http://www.w3.org/2000/svg" xmlns:xlink="http://www.w3.org/1999/xlink">
	<desc>
			Created with Pixso.
	</desc>
	<defs/>
	<rect width="821.870483" height="691.000000" fill="#FFFFFF" fill-opacity="0"/>
	<path d="M185.496 440.093L151.466 306.899L592.305 194.267L599.097 220.85L596.19 221.593L589.77 196.463L591.223 196.092L591.594 197.545L153.662 309.434L153.291 307.981L154.744 307.61L188.403 439.35L185.496 440.093Z" fill="#D9BA4C" fill-opacity="1.000000" fill-rule="evenodd"/>
	<path d="M238.371 601.556L227.461 604.344L201.464 502.592L204.371 501.849L229.996 602.148L228.543 602.519L228.172 601.066L237.628 598.65L238.371 601.556Z" fill="#D9BA4C" fill-opacity="1.000000" fill-rule="evenodd"/>
	<path d="M390.646 582.043L409.146 577.543L409.855 580.458L391.355 584.958L390.646 582.043ZM391.369 584.934L391.355 584.958C390.538 585.156 389.741 584.671 389.543 583.855C389.344 583.039 389.829 582.241 390.646 582.043L390.67 582.058L391.369 584.934ZM409.131 577.567L409.146 577.543C409.962 577.344 410.759 577.83 410.958 578.646C411.156 579.462 410.671 580.259 409.855 580.458L409.83 580.443L409.131 577.567Z" fill="#D9BA4C" fill-opacity="1.000000" fill-rule="evenodd"/>
	<path d="M592.102 536.661L439.351 573.459L438.649 570.542L591.399 533.745L592.102 536.661ZM439.366 573.435L439.351 573.459C438.535 573.656 437.739 573.168 437.542 572.352C437.345 571.535 437.832 570.739 438.649 570.542L438.673 570.557L439.366 573.435ZM591.385 533.769L591.399 533.745C592.216 533.548 593.012 534.035 593.209 534.852C593.406 535.668 592.919 536.464 592.102 536.661L592.078 536.646L591.385 533.769Z" fill="#D9BA4C" fill-opacity="1.000000" fill-rule="evenodd"/>
	<path d="M380.343 587.461L241.064 620.183L209.541 487.848L212.459 487.153L243.635 618.033L242.176 618.381L241.833 616.921L379.657 584.54L380.343 587.461ZM379.642 584.564L379.657 584.54C380.475 584.348 381.268 584.84 381.46 585.658C381.652 586.475 381.161 587.269 380.343 587.461L380.319 587.446L379.642 584.564ZM209.565 487.863L209.541 487.848C209.346 487.031 209.835 486.236 210.652 486.041C211.47 485.846 212.265 486.335 212.459 487.153L212.444 487.177L209.565 487.863Z" fill="#D9BA4C" fill-opacity="1.000000" fill-rule="evenodd"/>
	<path d="M198.523 441.849L169.83 321.567L612.412 215.99L654.771 393.56L651.853 394.256L609.842 218.145L611.301 217.797L611.649 219.256L171.985 324.137L171.637 322.678L173.096 322.33L201.441 441.152L198.523 441.849ZM201.417 441.138L201.441 441.152C201.636 441.969 201.147 442.765 200.33 442.96C199.513 443.154 198.718 442.666 198.523 441.849L198.538 441.824L201.417 441.138ZM654.747 393.545L654.771 393.56C654.966 394.377 654.477 395.172 653.66 395.367C652.843 395.562 652.047 395.073 651.853 394.256L651.867 394.232L654.747 393.545Z" fill="#D9BA4C" fill-opacity="1.000000" fill-rule="evenodd"/>
	<path d="M64.0432 268.786C59.6576 269.727 55.4717 271.106 51.5136 272.834L53.6386 282.741C48.3632 285.278 43.6299 288.547 39.5019 292.472L30.9946 286.97C27.9144 290.12 25.2316 293.615 22.8481 297.301C20.4645 300.986 18.3767 304.867 16.7675 308.968L25.2748 314.47C23.3874 319.845 22.3472 325.502 22.1974 331.354L12.2908 333.479C12.3374 337.798 12.7966 342.181 13.7374 346.567C14.6781 350.952 16.0569 355.138 17.7857 359.096L27.6924 356.971C30.2289 362.247 33.4979 366.98 37.4237 371.108L31.9215 379.615C35.0711 382.696 38.5667 385.378 42.2521 387.762C45.9374 390.145 49.8178 392.233 53.9188 393.842L59.421 385.335C64.796 387.223 70.4537 388.263 76.3052 388.412L78.4302 398.319C82.7492 398.272 87.1323 397.813 91.5179 396.873C95.9035 395.932 100.089 394.553 104.048 392.824L101.923 382.917C107.198 380.381 111.931 377.112 116.059 373.186L124.567 378.688C127.647 375.539 130.33 372.043 132.713 368.358C135.097 364.672 137.184 360.792 138.794 356.691L130.286 351.189C132.174 345.814 133.214 340.156 133.364 334.305L143.27 332.18C143.224 327.861 142.765 323.478 141.824 319.092C140.883 314.706 139.504 310.521 137.775 306.562L127.869 308.687C125.332 303.412 122.063 298.679 118.137 294.551L123.64 286.043C120.49 282.963 116.994 280.28 113.309 277.897C109.624 275.513 105.743 273.425 101.642 271.816L96.1401 280.323C90.7651 278.436 85.1075 277.396 79.2559 277.246L77.1309 267.339C72.812 267.386 68.4288 267.845 64.0432 268.786ZM70.9119 300.808C88.5878 297.016 106.011 308.285 109.802 325.961C113.594 343.637 102.325 361.059 84.6493 364.851C66.9733 368.642 49.5505 357.374 45.759 339.698C41.9675 322.022 53.236 304.599 70.9119 300.808Z" fill="#D9BA4C" fill-opacity="1.000000" fill-rule="nonzero"/>
	<path d="M306.651 357.083L309.002 366.938C303.786 369.595 299.128 372.971 295.091 376.99L286.46 371.684C283.453 374.903 280.851 378.459 278.552 382.198C276.253 385.937 274.255 389.864 272.74 394.001L281.371 399.307C279.607 404.724 278.696 410.404 278.68 416.257L268.825 418.608C268.97 422.925 269.53 427.297 270.57 431.66C271.611 436.023 273.085 440.176 274.904 444.093L284.76 441.742C287.416 446.958 290.793 451.616 294.812 455.653L289.506 464.284C292.725 467.291 296.281 469.893 300.02 472.192C303.759 474.49 307.686 476.489 311.823 478.004L317.129 469.373C322.546 471.137 328.225 472.048 334.079 472.063L336.43 481.919C340.747 481.774 345.118 481.214 349.481 480.173C353.844 479.133 357.997 477.659 361.915 475.84L359.564 465.984C364.78 463.328 369.437 459.951 373.474 455.932L382.105 461.238C385.113 458.019 387.715 454.463 390.013 450.724C392.312 446.985 394.311 443.058 395.826 438.921L387.195 433.615C388.959 428.198 389.869 422.519 389.885 416.665L399.741 414.314C399.595 409.997 399.036 405.626 397.995 401.263C396.954 396.9 395.48 392.747 393.661 388.829L383.806 391.18C381.149 385.964 377.773 381.307 373.754 377.27L379.06 368.639C375.841 365.631 372.285 363.029 368.546 360.73C364.807 358.432 360.88 356.433 356.743 354.918L351.437 363.549C346.02 361.785 340.34 360.875 334.487 360.859L332.135 351.003C327.819 351.149 323.447 351.708 319.084 352.749C314.721 353.79 310.568 355.264 306.651 357.083ZM366.139 408.862C370.334 426.447 359.467 444.123 341.882 448.317C324.297 452.512 306.621 441.645 302.427 424.06C298.232 406.476 309.099 388.8 326.684 384.605C344.268 380.41 361.944 391.277 366.139 408.862Z" stroke="#D9BA4C" stroke-opacity="1.000000" stroke-width="5.000000" stroke-linejoin="round"/>
	<path d="M348.115 500.48L349.245 505.219C346.737 506.497 344.497 508.121 342.556 510.053L338.405 507.502C336.959 509.05 335.707 510.76 334.602 512.558C333.496 514.356 332.535 516.245 331.807 518.234L335.957 520.786C335.109 523.391 334.671 526.123 334.663 528.938L329.924 530.068C329.994 532.144 330.263 534.247 330.763 536.345C331.264 538.443 331.973 540.44 332.847 542.324L337.587 541.194C338.865 543.702 340.488 545.942 342.421 547.884L339.87 552.034C341.418 553.481 343.128 554.732 344.926 555.838C346.724 556.943 348.613 557.904 350.602 558.633L353.154 554.482C355.759 555.33 358.49 555.768 361.306 555.776L362.436 560.515C364.512 560.446 366.614 560.177 368.713 559.676C370.811 559.175 372.808 558.467 374.692 557.592L373.562 552.852C376.07 551.575 378.31 549.951 380.251 548.018L384.402 550.57C385.848 549.022 387.1 547.311 388.205 545.513C389.311 543.715 390.272 541.827 391 539.837L386.85 537.285C387.698 534.68 388.136 531.949 388.144 529.134L392.883 528.003C392.813 525.927 392.544 523.825 392.044 521.727C391.543 519.628 390.834 517.631 389.96 515.747L385.22 516.878C383.942 514.369 382.319 512.129 380.386 510.188L382.938 506.037C381.389 504.591 379.679 503.339 377.881 502.234C376.083 501.129 374.194 500.167 372.205 499.439L369.653 503.589C367.048 502.741 364.317 502.303 361.501 502.296L360.371 497.556C358.295 497.626 356.193 497.895 354.094 498.395C351.996 498.896 349.999 499.605 348.115 500.48ZM376.724 525.381C378.741 533.838 373.515 542.339 365.058 544.356C356.601 546.373 348.101 541.147 346.083 532.69C344.066 524.234 349.292 515.733 357.749 513.716C366.206 511.698 374.706 516.924 376.724 525.381Z" stroke="#4A1010" stroke-opacity="0.700000" stroke-width="3.000000" stroke-linejoin="round"/>
	<path d="M595.477 485.056C580.551 519.748 593.339 560.137 625.512 579.916C657.619 599.656 699.34 592.906 723.586 564.051L759.064 521.827C792.147 482.455 782.51 422.882 738.701 395.948C694.968 369.062 637.561 387.238 617.272 434.396L595.477 485.056Z" stroke="#D9BA4C" stroke-opacity="1.000000" stroke-width="5.000000"/>
	<path d="M617.532 437.288L608.845 458.963C594.589 494.535 608.03 535.204 640.677 555.275C673.245 575.298 715.492 569.016 740.826 540.385L756.3 522.897C790.358 484.405 781.452 424.501 737.668 397.583C693.972 370.719 636.613 389.676 617.532 437.288Z" fill="#D9BA4C" fill-opacity="1.000000" fill-rule="evenodd"/>
	<circle r="15.500000" transform="matrix(0.972707 0.972707 0.232036 -0.232036 334.228 415.997)" stroke="#D9BA4C" stroke-opacity="1.000000" stroke-width="2.000000"/>
	<circle r="22.500000" transform="matrix(0.972707 0.972707 0.232036 -0.232036 334.229 415.997)" stroke="#D9BA4C" stroke-opacity="1.000000" stroke-width="2.000000"/>
	<path d="M310.699 315.206L371.492 570.055" stroke="#D9BA4C" stroke-opacity="1.000000" stroke-width="2.000000" stroke-linecap="round" stroke-dasharray="12 12"/>
	<path d="M420.195 282.917L463.354 463.841" stroke="#D9BA4C" stroke-opacity="1.000000" stroke-width="2.000000" stroke-linecap="round" stroke-dasharray="12 12"/>
	<path d="M486.499 272.002L535.691 478.216" stroke="#D9BA4C" stroke-opacity="1.000000" stroke-width="2.000000" stroke-linecap="round" stroke-dasharray="12 12"/>
	<path d="M558.516 276.651L597.73 441.038" stroke="#D9BA4C" stroke-opacity="1.000000" stroke-width="2.000000" stroke-linecap="round" stroke-dasharray="12 12"/>
	<path d="M299.726 545.024L419.369 516.484" stroke="#D9BA4C" stroke-opacity="1.000000" stroke-width="2.000000" stroke-linecap="round" stroke-dasharray="12 12"/>
	<path d="M237.56 439.571L605.243 351.862" stroke="#D9BA4C" stroke-opacity="1.000000" stroke-width="2.000000" stroke-linecap="round" stroke-dasharray="12 12"/>
	<path d="M302.742 557.67L315.387 554.653" stroke="#D9BA4C" stroke-opacity="1.000000" stroke-width="3.000000" stroke-linecap="round"/>
	<path d="M439.055 512.816L522.708 492.861" stroke="#D9BA4C" stroke-opacity="1.000000" stroke-width="3.000000" stroke-linecap="round"/>
	<path d="M441.839 524.488L518.683 506.157" stroke="#D9BA4C" stroke-opacity="1.000000" stroke-width="3.000000" stroke-linecap="round"/>
	<path d="M443.463 531.297L485.29 521.32" stroke="#D9BA4C" stroke-opacity="1.000000" stroke-width="3.000000" stroke-linecap="round"/>
	<path d="M304.366 564.479L330.629 558.214" stroke="#D9BA4C" stroke-opacity="1.000000" stroke-width="3.000000" stroke-linecap="round"/>
	<path d="M454.21 356.123L468.283 333.233" stroke="#696969" stroke-opacity="0.600000" stroke-width="3.000000" stroke-linecap="round"/>
	<path d="M446.879 394.779L499.467 309.242" stroke="#696969" stroke-opacity="0.600000" stroke-width="3.000000" stroke-linecap="round"/>
	<path d="M492.735 346.922L510.251 318.908M459.67 400.705L476.751 372.908" stroke="#696969" stroke-opacity="0.600000" stroke-width="3.000000"/>
	<path d="M512.735 341.123L525.542 320.292M469.251 411.853L482.368 390.518" stroke="#696969" stroke-opacity="0.600000" stroke-width="3.000000"/>
	<path d="M526.251 345.908L542.752 318.408M474.635 429.827L492.33 401.043" stroke="#696969" stroke-opacity="0.600000" stroke-width="3.000000"/>
	<path d="M537.251 354.408L549.751 334.908M491.745 428.725L504.96 407.232" stroke="#696969" stroke-opacity="0.600000" stroke-width="3.000000"/>
	<path d="M542.751 372.408L557.251 347.908M507.375 430.034L521.139 407.371" stroke="#696969" stroke-opacity="0.600000" stroke-width="3.000000"/>
	<path d="M518.561 438.571L571.251 351.908" stroke="#696969" stroke-opacity="0.600000" stroke-width="3.000000" stroke-linecap="round"/>
	<path d="M548.264 416.989L564.251 390.908" stroke="#696969" stroke-opacity="0.600000" stroke-width="3.000000" stroke-linecap="round"/>
	<path d="M482.07 315.366L484.421 325.222C479.205 327.878 474.548 331.255 470.511 335.274L461.88 329.968C458.872 333.187 456.27 336.743 453.972 340.482C451.673 344.221 449.674 348.148 448.159 352.285L456.79 357.591C455.026 363.008 454.116 368.688 454.1 374.541L444.244 376.892C444.39 381.209 444.949 385.58 445.99 389.943C447.031 394.306 448.505 398.459 450.324 402.377L460.179 400.026C462.836 405.242 466.212 409.899 470.231 413.937L464.925 422.567C468.144 425.575 471.7 428.177 475.439 430.476C479.178 432.774 483.105 434.773 487.242 436.288L492.548 427.657C497.965 429.421 503.645 430.331 509.498 430.347L511.849 440.203C516.166 440.057 520.538 439.498 524.901 438.457C529.264 437.416 533.417 435.942 537.334 434.123L534.983 424.268C540.199 421.611 544.857 418.235 548.894 414.216L557.525 419.522C560.532 416.303 563.134 412.747 565.433 409.008C567.732 405.269 569.73 401.342 571.245 397.205L562.614 391.899C564.378 386.482 565.289 380.802 565.305 374.949L575.16 372.598C575.015 368.281 574.455 363.909 573.415 359.547C572.374 355.183 570.9 351.03 569.081 347.113L559.225 349.464C556.569 344.248 553.192 339.59 549.173 335.553L554.479 326.922C551.26 323.915 547.704 321.313 543.965 319.014C540.226 316.716 536.299 314.717 532.162 313.202L526.856 321.833C521.439 320.069 515.76 319.158 509.906 319.143L507.555 309.287C503.238 309.432 498.867 309.992 494.504 311.033C490.141 312.073 485.988 313.548 482.07 315.366ZM541.558 367.146C545.753 384.73 534.886 402.406 517.301 406.601C499.717 410.796 482.041 399.929 477.846 382.344C473.651 364.759 484.518 347.083 502.103 342.889C519.688 338.694 537.364 349.561 541.558 367.146Z" stroke="#D9BA4C" stroke-opacity="1.000000" stroke-width="5.000000" stroke-linejoin="round"/>
	<path d="M218.239 375.814L364.631 340.892" stroke="#D9BA4C" stroke-opacity="1.000000" stroke-width="3.000000" stroke-linecap="round"/>
	<path d="M303.709 490.615L394.171 469.036" stroke="#D9BA4C" stroke-opacity="1.000000" stroke-width="3.000000" stroke-linecap="round"/>
	<path d="M421.893 462.423L569.258 427.269" stroke="#D9BA4C" stroke-opacity="1.000000" stroke-width="3.000000" stroke-linecap="round"/>
	<path d="M451.804 320.612L541.293 299.264" stroke="#D9BA4C" stroke-opacity="1.000000" stroke-width="3.000000" stroke-linecap="round"/>
	<path d="M456.476 599.234C452.476 594.734 447.976 588.234 446.976 581.234C446.287 576.417 441.142 573.067 437.976 573.234" stroke="#D9BA4C" stroke-opacity="1.000000" stroke-width="5.000000" stroke-linecap="round"/>
	<path d="M438.476 581.234C438.476 577.567 438.776 570.334 429.976 570.734" stroke="#D9BA4C" stroke-opacity="1.000000" stroke-width="5.000000" stroke-linecap="round"/>
	<path d="M431.976 577.734C430.642 573.901 426.866 566.634 420.066 570.234" stroke="#D9BA4C" stroke-opacity="1.000000" stroke-width="5.000000" stroke-linecap="round"/>
	<path d="M426.475 582.234C424.309 580.901 421.475 575.434 419.475 568.234C417.475 561.034 406.975 554.901 401.975 552.734C399.309 551.567 393.975 550.934 393.975 557.734C393.975 563.734 408.676 568.934 409.475 577.734C410.276 586.534 409.809 590.401 409.475 591.234C408.642 592.901 405.676 594.934 400.475 589.734C395.276 584.534 388.475 583.234 384.975 584.234C381.975 585.234 377.776 588.634 384.975 594.234C390.325 598.395 407.875 606.134 423.475 625.734" stroke="#D9BA4C" stroke-opacity="1.000000" stroke-width="5.000000" stroke-linecap="round"/>
	<path d="M499.742 696C477.43 681.656 446.981 650.578 434.39 636.663C434.292 636.555 434.206 636.436 434.135 636.308C427.895 625.08 426.8 603 471.742 603C496.334 603 553.534 638.245 594.334 677.045" stroke="#D9BA4C" stroke-opacity="1.000000" stroke-width="5.000000" stroke-linecap="round"/>
	<path d="M139.834 641.545C173.334 576.545 165.279 566.5 157 555.5C122 509 110.5 542.774 106.5 561.499C104.482 570.948 98.9191 584.845 91.5001 597.345C80.6667 615.598 55.6001 653.245 46.0001 666.845" stroke="#D9BA4C" stroke-opacity="1.000000" stroke-width="5.000000" stroke-linecap="round"/>
	<path d="M170.596 545.096C177.913 536.091 191.14 522.02 196.487 512.17L205.211 497.255C211.12 487.76 213.65 480.02 215.908 475.823C216.912 473.958 217.537 472.541 218.927 469.769C220.189 467.252 221.299 464.711 220.418 462.626C219.743 461.03 216.93 458.236 211.072 459.831C205.213 461.426 201.218 466.374 199.952 468.648C198.685 470.533 193.182 477.362 191.675 478.86C188.173 482.343 170.922 496.784 160.163 488.323" stroke="#D9BA4C" stroke-opacity="1.000000" stroke-width="5.000000" stroke-linecap="round"/>
	<path d="M158.069 474.34C167 469.618 184.35 461.105 190.393 455.26C196.6 454.059 211.928 456.067 210.381 447.837C210.059 446.122 204.662 441.869 196.639 440.426C190.866 439.387 186.68 438.981 181.884 441.559C179.165 443.02 178.086 443.539 174.576 445.87C171.851 447.071 170.191 448.459 167.966 449.989C165.68 451.56 162.369 454.058 157.737 458.428" stroke="#D9BA4C" stroke-opacity="1.000000" stroke-width="5.000000" stroke-linecap="round"/>
	<path d="M174.576 445.87C173.119 445.078 166.824 445.129 159.403 448.805C151.297 452.82 149.912 454.34 146.773 456.411C143.634 458.482 137.356 462.624 134.898 464.623C130.55 468.158 126.587 472.144 125.023 474.154C122.268 478.408 123.803 481.626 127.943 489.547" stroke="#D9BA4C" stroke-opacity="1.000000" stroke-width="5.000000" stroke-linecap="round"/>
	<path d="M130.426 504.253C130.426 509.526 129.228 522.02 125.57 532.433" stroke="#D9BA4C" stroke-opacity="1.000000" stroke-width="5.000000" stroke-linecap="round"/>
	<path d="M158.02 474.295L126.88 490.898C117.929 494.846 123.863 506.538 132.393 503.202L202.998 464.624M212.819 459.124L225.877 452.065L219.693 442.177L210.854 446.642" stroke="#D9BA4C" stroke-opacity="1.000000" stroke-width="5.000000"/>
	<path d="M227.638 451.106L235 440.211" stroke="#D9BA4C" stroke-opacity="1.000000" stroke-width="5.000000" stroke-linecap="round"/>
	<path d="M221.447 441.257L235 440.211" stroke="#D9BA4C" stroke-opacity="1.000000" stroke-width="5.000000" stroke-linecap="round"/>
	<path d="M255.136 232.897L282.57 232.897C283.713 232.897 284.623 231.942 284.568 230.8L278.169 98.137L276.471 61.5432C276.421 60.4758 275.542 59.6359 274.473 59.6359L251.382 59.6359L233.423 59.6359C232.303 59.6359 231.401 60.5564 231.424 61.6768L232.169 98.1356L234.263 233.637C235.186 250.875 256.581 247.96 255.136 232.897L252.669 98.137L251.382 59.6359" stroke="#D9BA4C" stroke-opacity="1.000000" stroke-width="5.000000"/>
	<rect x="278.915039" y="114.136719" rx="10.000000" width="228.000000" height="142.000000" transform="rotate(-30 278.915039 114.136719)" stroke="#D9BA4C" stroke-opacity="1.000000" stroke-width="5.000000"/>
	<ellipse rx="5.500000" ry="6.000000" transform="matrix(0.866025 0.866025 0.5 -0.5 308.718 121.757)" fill="#D9BA4C" fill-opacity="1.000000"/>
	<path d="M489.152 127.279L520.329 109.279M505.021 129.664L525.329 117.94" stroke="#D9BA4C" stroke-opacity="1.000000" stroke-width="5.000000"/>
	<path d="M345.976 179.144C352.531 174.519 371.181 169.234 394.296 184.046C394.992 184.492 395.914 183.968 395.872 183.142C394.436 154.888 395.502 124.966 453.811 126.489C454.848 126.516 455.306 125.068 454.462 124.464C438.757 113.229 418.876 86.7946 442.93 53.8872C443.491 53.1201 442.79 52.0414 441.867 52.2666L432.846 54.4667C431.804 54.7208 431.202 53.4489 432.083 52.8374C440.382 47.0796 452.538 40.8484 451.291 48.3268C449.808 57.2257 450.789 61.7444 455.635 67.3428" stroke="#D9BA4C" stroke-opacity="1.000000" stroke-width="5.000000" stroke-linecap="round"/>
</svg>
