<?xml version="1.0" encoding="iso-8859-1"?>
<!-- Uploaded to: SVG Repo, www.svgrepo.com, Generator: SVG Repo Mixer Tools -->
<svg version="1.1" id="Layer_1" xmlns="http://www.w3.org/2000/svg" xmlns:xlink="http://www.w3.org/1999/xlink" 
	 viewBox="0 0 511.982 511.982" xml:space="preserve">
<path style="fill:#E6E9ED;" d="M48.249,212.776c8.265-30.827,66.154-74.029,77.716-70.936
	c11.546,3.094,40.093,69.452,31.827,100.294c-8.265,30.828-39.483,49.25-69.732,41.14S39.999,243.604,48.249,212.776z"/>
<path style="fill:#CCD1D9;" d="M81.935,316.883c-0.906,0-1.844-0.125-2.766-0.375c-5.687-1.516-9.077-7.375-7.546-13.061
	l23.28-86.921c1.531-5.687,7.375-9.062,13.062-7.546c5.703,1.531,9.078,7.375,7.562,13.062l-23.296,86.919
	C90.966,313.726,86.654,316.883,81.935,316.883z"/>
<polygon style="fill:#ED5564;" points="339.397,304.447 278.243,323.289 230.103,167.044 291.273,148.2 "/>
<polygon style="fill:#434A54;" points="342.241,132.497 179.136,182.746 180.682,115.295 323.397,71.343 "/>
<path d="M397.113,320.305l-81.028-36.326l14.453-32.234l35.015-13.328l32.686,14.656l13.328,35L397.113,320.305z M344.288,273.244
	l42.092,18.875l2.109-4.719l-7.047-18.484l-16.562-7.422l-18.483,7.031L344.288,273.244z"/>
<path style="fill:#A0D468;" d="M466.783,122.373c3.391,1.531,4.922,5.531,3.391,8.921l-59.107,131.825
	c-1.516,3.391-5.516,4.922-8.922,3.391l-49.231-22.078c-3.406-1.531-4.922-5.516-3.406-8.922l59.106-131.825
	c1.531-3.391,5.516-4.906,8.922-3.391L466.783,122.373z"/>
<path style="fill:#8CC153;" d="M382.864,254.244c-1.469,0-2.938-0.312-4.359-0.937c-5.374-2.406-7.78-8.719-5.374-14.094
	l42.248-94.232c2.422-5.375,8.734-7.781,14.109-5.375s7.766,8.718,5.359,14.093l-42.25,94.232
	C390.817,251.901,386.927,254.244,382.864,254.244z"/>
<g>
	<rect x="42.655" y="234.664" style="fill:#F6BB42;" width="426.66" height="213.32"/>
	<rect x="53.323" y="106.674" style="fill:#F6BB42;" width="405.32" height="21.328"/>
</g>
<g>
	<path style="fill:#DBA037;" d="M127.996,319.992H63.998c-5.906,0-10.672-4.766-10.672-10.656c0-5.889,4.766-10.67,10.672-10.67
		h63.998c5.875,0,10.656,4.781,10.656,10.67C138.652,315.226,133.871,319.992,127.996,319.992z"/>
	<path style="fill:#DBA037;" d="M447.987,298.666h-42.671c-5.891,0-10.672-4.766-10.672-10.672c0-5.891,4.781-10.656,10.672-10.656
		h42.671c5.891,0,10.656,4.766,10.656,10.656C458.643,293.9,453.878,298.666,447.987,298.666z"/>
	<path style="fill:#DBA037;" d="M85.326,405.334H63.998c-5.906,0-10.672-4.781-10.672-10.672s4.766-10.672,10.672-10.672h21.327
		c5.891,0,10.671,4.781,10.671,10.672S91.216,405.334,85.326,405.334z"/>
	<path style="fill:#DBA037;" d="M447.987,394.662h-74.669c-27.187,0-40.843,14.641-47.515,26.906
		c-6.766,12.467-7.5,24.607-7.562,25.951c0,0.156,0,0.312,0,0.469H339.6c0.203-2.031,1.188-9.578,5.25-16.781
		c5.797-10.232,15.109-15.217,28.468-15.217h74.669c5.891,0,10.656-4.766,10.656-10.656S453.878,394.662,447.987,394.662z"/>
</g>
<g>
	<rect y="63.994" style="fill:#FFCE54;" width="63.999" height="383.99"/>
	<rect x="447.983" y="63.994" style="fill:#FFCE54;" width="63.999" height="383.99"/>
</g>
</svg>