<svg width="823.331177" height="576.331055" viewBox="0 0 823.331 576.331" fill="none" xmlns="http://www.w3.org/2000/svg" xmlns:xlink="http://www.w3.org/1999/xlink">
	<desc>
			Created with Pixso.
	</desc>
	<defs/>
	<path id="Shape" d="M413.54 0C436.928 0.040802 672.331 0.856842 733.301 17.1774C768.745 26.5853 796.615 54.3998 806.125 89.9861C822.644 151.636 823.305 277.371 823.331 287.331L823.331 288.591C823.305 298.581 822.644 424.693 806.125 486.343C796.615 521.929 768.745 549.744 733.301 559.152C670.406 575.988 421.887 576.324 411.971 576.331L411.36 576.331C401.443 576.324 152.884 575.988 89.9481 559.152C54.5447 549.744 26.6337 521.929 17.1654 486.343C0.685547 424.693 0.0263672 298.581 0 288.591L0 287.331C0.0263672 277.371 0.685547 151.636 17.1654 89.9861C26.6337 54.3998 54.5447 26.5853 89.9481 17.1774C150.957 0.856842 386.399 0.040802 409.791 0L413.54 0ZM327.439 166.476L327.439 409.853L542.658 287.96L327.439 166.476Z" fill="#54586C" fill-opacity="1.000000" fill-rule="evenodd"/>
</svg>
